<?xml version="1.0" encoding="UTF-8" standalone="no"?>
<svg
   version="1.1"
   id="svg33"
   width="369.01334"
   height="116.89333"
   viewBox="0 0 369.01334 116.89333"
   xmlns="http://www.w3.org/2000/svg"
   xmlns:svg="http://www.w3.org/2000/svg">
  <defs
     id="defs37" />
  <g
     id="g41"
     transform="matrix(1.3333333,0,0,-1.3333333,0,116.89333)">
    <g
       id="g43"
       transform="scale(0.1)">
      <path
         d="m 894.563,504.246 c 0,90.754 73.585,149.613 156.967,149.613 52.13,0 93.82,-23.91 120.79,-61.312 l -60.7,-42.305 c -12.88,17.781 -36.79,28.813 -59.48,28.813 -45.36,0 -76.031,-33.117 -76.031,-74.809 0,-42.305 30.671,-76.648 76.031,-76.648 22.69,0 46.6,11.047 59.48,28.828 l 60.7,-42.305 c -26.97,-37.402 -68.66,-61.312 -120.79,-61.312 -83.382,0 -156.967,60.699 -156.967,151.437"
         style="fill:#ffffff;fill-opacity:1;fill-rule:nonzero;stroke:none"
         id="path45" />
      <path
         d="m 1543,450.301 h 75.42 c 0,-16.559 14.1,-34.34 42.3,-34.34 23.32,0 41.1,11.637 41.1,28.195 0,12.27 -9.82,18.399 -31.28,23.91 l -38.02,9.207 c -73.58,19.622 -83.38,60.7 -83.38,90.75 0,44.145 45.98,85.836 112.19,85.836 52.13,0 113.44,-25.132 112.83,-93.203 h -76.65 c 0,19.621 -15.94,30.055 -34.93,30.055 -18.4,0 -33.12,-10.434 -33.12,-25.152 0,-13.481 12.25,-20.235 28.2,-24.524 l 47.22,-12.25 c 68.67,-18.398 77.26,-61.332 77.26,-84.629 0,-60.086 -61.33,-91.347 -120.19,-91.347 -60.09,0 -118.34,34.324 -118.95,97.492"
         style="fill:#ffffff;fill-opacity:1;fill-rule:nonzero;stroke:none"
         id="path47" />
      <path
         d="m 2049.21,503.02 c 0,42.304 -33.12,76.035 -73.58,76.035 -39.25,0 -74.2,-32.504 -74.2,-76.035 0,-43.532 36.79,-75.422 74.2,-75.422 40.46,0 73.58,33.117 73.58,75.422 z m 82.16,0.613 c 0,-92.574 -66.85,-150.824 -140.41,-150.824 -32.51,0 -71.75,13.476 -91.98,42.918 V 219.75 h -80.32 v 426.758 h 80.32 v -34.953 c 20.23,28.812 59.47,42.304 91.98,42.304 73.56,0 140.41,-58.859 140.41,-150.226"
         style="fill:#ffffff;fill-opacity:1;fill-rule:nonzero;stroke:none"
         id="path49" />
      <path
         d="m 2384.56,529.395 c -2.45,33.714 -30.04,55.171 -66.22,55.171 -33.11,0 -61.31,-16.543 -69.9,-55.171 z m 79.09,-52.122 h -215.21 c 8.59,-33.726 35.56,-53.347 73.58,-53.347 29.42,0 57.64,13.492 75.42,33.726 l 46.59,-47.207 c -26.97,-36.179 -76.64,-57.636 -126.91,-57.636 -88.3,0 -152.68,61.925 -152.68,150.211 0,92.589 70.52,150.839 152.07,150.839 82.16,0 148.98,-58.25 148.98,-145.921 0,-7.981 -0.61,-17.786 -1.84,-30.665"
         style="fill:#ffffff;fill-opacity:1;fill-rule:nonzero;stroke:none"
         id="path51" />
      <path
         d="m 2489.82,504.246 c 0,90.754 73.58,149.613 156.96,149.613 52.13,0 93.82,-23.91 120.79,-61.312 l -60.7,-42.305 c -12.88,17.781 -36.79,28.813 -59.47,28.813 -45.37,0 -76.04,-33.117 -76.04,-74.809 0,-42.305 30.67,-76.648 76.04,-76.648 22.68,0 46.59,11.047 59.47,28.828 l 60.7,-42.305 c -26.97,-37.402 -68.66,-61.312 -120.79,-61.312 -83.38,0 -156.96,60.699 -156.96,151.437"
         style="fill:#ffffff;fill-opacity:1;fill-rule:nonzero;stroke:none"
         id="path53" />
      <path
         d="m 1298.09,650.98 v 0 -36.621 c 18.85,26.395 49.01,42.547 85.09,42.547 68.94,0 112.56,-45.242 112.56,-121.176 V 360.16 h -75.94 v 164.262 c 0,41.469 -19.93,67.316 -59.24,67.316 -35,0 -61.93,-25.847 -61.93,-71.086 V 360.16 h -74.87 v 216.496 c 0,41.047 33.28,74.324 74.33,74.324"
         style="fill:#ffffff;fill-opacity:1;fill-rule:nonzero;stroke:none"
         id="path55" />
      <path
         d="M 368.93,651.551 V 0 c 179.918,0 325.773,145.855 325.773,325.777 0,179.918 -145.855,325.774 -325.773,325.774"
         style="fill:#ee1e79;fill-opacity:1;fill-rule:nonzero;stroke:none"
         id="path57" />
      <path
         d="M 0,550.883 C 0,370.961 145.855,225.109 325.777,225.109 V 876.656 C 145.855,876.656 0,730.805 0,550.883"
         style="fill:#ee1e79;fill-opacity:1;fill-rule:nonzero;stroke:none"
         id="path59" />
    </g>
  </g>
</svg>
